<?xml version="1.0" encoding="utf-8"?>
<!-- Generator: Adobe Illustrator 19.2.1, SVG Export Plug-In . SVG Version: 6.00 Build 0)  -->
<svg version="1.1" id="Layer_1" xmlns="http://www.w3.org/2000/svg" xmlns:xlink="http://www.w3.org/1999/xlink" x="0px" y="0px"
	 viewBox="0 0 283.5 283.5" style="enable-background:new 0 0 283.5 283.5;" xml:space="preserve">
<path d="M190.4,138.2c0,0,16.4,4.7,25.6,11.4c9.2,6.7,20.9,14.5,24.2,15.3c3.3,0.8,11.4,2.9,11.4,4.5s-3.6,9.7-10,10
	c-6.4,0.3-8.9-2.2-12,4.5c-3,6.7-7,19.5-6.1,21.7c0.8,2.2,2.2,10.9-6.1,7.2c-8.4-3.6-27-13.5-27-13.5l2.5-5.4c0,0,7.1,2.5,12.1-1.4
	s9.3-18.7,6.5-22.3c-2.8-3.6-10.8-6.2-14.9-4c-3.6,2-7.4,16.8-9.6,17.6c-2.2,0.8-5.8-2.2-9.2,0c-3.3,2.2-5,8.6-6.7,8.6
	s-12.8-5.6-12.8-5.6L190.4,138.2z"/>
<g>
	<path d="M141.6,115c-39.8-18.8-91.7-43.4-93.8-44.2c-3.3-1.4-5-1.9-7.5-1.4c-2.5,0.6-7.8,5-7.8,5l77.1,68.1L141.6,115z"/>
	<path d="M165.9,126.5l-37.1,32.9l27.7,24.4l30.6-47.4C187.1,136.5,178.6,132.6,165.9,126.5z"/>
</g>
<g>
	<path d="M199.2,92.6c0,0-128.2,113.2-130.7,116.5c-3,4-4.1,4.9-6.4,4.5c-2.3-0.4-11.4-12.4-12.1-14c-0.6-1.6,1.5-3.9,4.8-5.7
		C58,192.1,186.8,79.4,186.8,79.4L199.2,92.6z"/>
	<path d="M201.7,90.5l-21.9-23.8c0,0-2.2-7.8-12-10.9c-10.2-3.2-17.2-4.9-17.2-4.9l0.6-3.6c0,0,27.4,3.9,35.8,7.7s13.5,5,17.5,9.8
		c4,4.8,11.4,12.5,11.4,12.5L201.7,90.5z"/>
	<rect x="208.7" y="81.1" transform="matrix(0.6738 0.7389 -0.7389 0.6738 138.5896 -129.9638)" width="15.5" height="21.9"/>
</g>
</svg>
