<?xml version="1.0" encoding="utf-8"?>
<!-- Generator: Adobe Illustrator 19.2.1, SVG Export Plug-In . SVG Version: 6.00 Build 0)  -->
<svg version="1.1" id="Layer_1" xmlns="http://www.w3.org/2000/svg" xmlns:xlink="http://www.w3.org/1999/xlink" x="0px" y="0px"
	 viewBox="0 0 283.5 283.5" style="enable-background:new 0 0 283.5 283.5;" xml:space="preserve">
<style type="text/css">
	.st0{fill:#939598;}
	.st1{fill:#FFFFFF;}
</style>
<g>
	<circle cx="497.7" cy="198.9" r="141.7"/>
</g>
<path d="M87.8,121.5c4.4,0,8,3.6,8,8v24.4c0,4.4-3.6,8-8,8H63.4c-4.4,0-8-3.6-8-8v-24.4c0-4.4,3.6-8,8-8H87.8 M87.8,117.5H63.4
	c-6.6,0-12,5.4-12,12v24.4c0,6.6,5.4,12,12,12h24.4c6.6,0,12-5.4,12-12v-24.4C99.8,122.9,94.4,117.5,87.8,117.5L87.8,117.5z"/>
<path d="M87.8,181.9c4.4,0,8,3.6,8,8v24.4c0,4.4-3.6,8-8,8H63.4c-4.4,0-8-3.6-8-8v-24.4c0-4.4,3.6-8,8-8H87.8 M87.8,177.9H63.4
	c-6.6,0-12,5.4-12,12v24.4c0,6.6,5.4,12,12,12h24.4c6.6,0,12-5.4,12-12v-24.4C99.8,183.3,94.4,177.9,87.8,177.9L87.8,177.9z"/>
<g>
	<path d="M224.7,100.9H122.5c-7.7,0-14-6.3-14-14v-11c0-7.7,6.3-14,14-14h102.2c7.7,0,14,6.3,14,14v11
		C238.7,94.6,232.4,100.9,224.7,100.9z M122.5,65.9c-5.5,0-10,4.5-10,10v11c0,5.5,4.5,10,10,10h102.2c5.5,0,10-4.5,10-10v-11
		c0-5.5-4.5-10-10-10H122.5z"/>
</g>
<g>
	<path d="M224.7,161.2H122.5c-7.7,0-14-6.3-14-14v-11c0-7.7,6.3-14,14-14h102.2c7.7,0,14,6.3,14,14v11
		C238.7,155,232.4,161.2,224.7,161.2z M122.5,126.2c-5.5,0-10,4.5-10,10v11c0,5.5,4.5,10,10,10h102.2c5.5,0,10-4.5,10-10v-11
		c0-5.5-4.5-10-10-10H122.5z"/>
</g>
<g>
	<path d="M224.7,221.6H122.5c-7.7,0-14-6.3-14-14v-11c0-7.7,6.3-14,14-14h102.2c7.7,0,14,6.3,14,14v11
		C238.7,215.3,232.4,221.6,224.7,221.6z M122.5,186.6c-5.5,0-10,4.5-10,10v11c0,5.5,4.5,10,10,10h102.2c5.5,0,10-4.5,10-10v-11
		c0-5.5-4.5-10-10-10H122.5z"/>
</g>
<path d="M95.1,65.9c0.5,1,0.7,2.1,0.7,3.3v24.4c0,4.4-3.6,8-8,8H63.4c-4.4,0-8-3.6-8-8V69.2c0-4.4,3.6-8,8-8h23.6
	c0.8-1,1.6-2.1,2.5-3.2c0.2-0.2,0.3-0.4,0.5-0.6c-0.7-0.1-1.4-0.2-2.2-0.2H63.4c-6.6,0-12,5.4-12,12v24.4c0,6.6,5.4,12,12,12h24.4
	c6.6,0,12-5.4,12-12V69.2c0-2.6-0.9-5.1-2.3-7C96.8,63.3,96,64.5,95.1,65.9z"/>
<path d="M116.7,36.4c0,0-19.7,13.9-27.9,25.2S76.3,81.6,76.3,81.6s-1.9-3.3-3.8-5.5c-1.9-2.2-4.4-4.2-4.4-4.2L62,81.6
	c0,0,3.3,0.5,5.8,4.4c2.4,3.9,7.8,13,7.8,13s14.2-30,20.7-38.9C107.8,44.5,116.7,36.4,116.7,36.4z"/>
<path class="st0" d="M497.7,115.2v84.5h84.5C582.2,153,544.4,115.2,497.7,115.2z"/>
<path class="st1" d="M582.2,199.7h-84.5v84.5C544.4,284.2,582.2,246.3,582.2,199.7z"/>
<path class="st0" d="M498.2,284.2v-84.5h-84.5C413.7,246.3,451.5,284.2,498.2,284.2z"/>
<path class="st1" d="M413.7,199.7h84.5v-84.5C451.5,115.2,413.7,153,413.7,199.7z"/>
</svg>
